Coordinates
version=1
nRows=17
nColumns=36
inDegrees=yes

Units are S.I. units (second, meters, Newtons, ...)
If the header above contains a line with 'inDegrees', this indicates whether rotational values are in degrees (yes) or radians (no).

endheader
time	pelvis_tilt	pelvis_list	pelvis_rotation	pelvis_tx	pelvis_ty	pelvis_tz	hip_flexion_r	hip_adduction_r	hip_rotation_r	knee_angle_r	knee_angle_r_beta	ankle_angle_r	subtalar_angle_r	mtp_angle_r	hip_flexion_l	hip_adduction_l	hip_rotation_l	knee_angle_l	knee_angle_l_beta	ankle_angle_l	subtalar_angle_l	mtp_angle_l	lumbar_extension	lumbar_bending	lumbar_rotation	arm_flex_r	arm_add_r	arm_rot_r	elbow_flex_r	pro_sup_r	arm_flex_l	arm_add_l	arm_rot_l	elbow_flex_l	pro_sup_l
      1.50000000	    -19.28157284	      1.12976496	     -6.46299391	      0.74264811	      1.18241287	     -0.02544746	     41.63033984	     -0.13064709	      2.26211514	     50.94886913	      0.88922552	     32.74117835	      3.92278074	     -7.49999987	     42.70668724	     -1.36702797	     -1.11366826	     50.47286561	      0.88091769	     29.82269640	      7.03699891	     -7.49999987	    -12.99674487	     -1.17957222	     -0.13685864	      4.18842984	    -15.83101252	     18.96539552	     29.68030073	     74.38214361	      3.94068185	    -15.21630348	     22.91929816	     25.24254500	     73.11285992
      1.51666670	    -20.40587788	      1.29941266	     -6.46044045	      0.74821578	      1.16569253	     -0.01987000	     44.46662637	     -0.04671180	      2.21872507	     54.80889877	      0.95659574	     35.66636248	      5.10124544	     -7.49999987	     45.34709203	     -1.60370412	     -1.31293051	     54.09898633	      0.94420543	     31.66982348	      7.19524969	     -7.49999987	    -13.16932639	     -1.54373318	      0.26368473	      6.03270793	    -16.23389237	     18.27007295	     32.67152805	     73.87554388	      5.69898324	    -15.94127780	     22.53334350	     28.15052475	     72.38008265
      1.53333330	    -21.07485992	      1.44610380	     -6.41301506	      0.76140538	      1.16505486	     -0.01859031	     45.93929794	      0.06538674	      2.26568601	     57.40261554	      1.00186464	     38.09662429	      5.45289647	     -7.49999987	     46.60991079	     -1.65185937	     -1.33457860	     56.48965546	      0.98593048	     32.99374917	      7.02928930	     -7.49999987	    -13.19488840	     -1.84180449	      0.72526359	      7.91489261	    -16.55708152	     16.32487469	     36.39633074	     73.46148043	      7.59738308	    -16.74591987	     21.96654693	     31.72447600	     71.18741199
      1.55000000	    -21.76950997	      1.56379263	     -6.33403912	      0.76073302	      1.16152842	     -0.01843041	     47.15283841	      0.14014640	      2.19863816	     59.32529903	      1.03542180	     39.90770550	      5.91792734	     -7.49999987	     47.67977687	     -1.74157506	     -1.42878937	     58.33085496	      1.01806547	     34.27754070	      7.61264795	     -7.49999987	    -12.83515695	     -2.02744108	      0.98950960	     11.10091889	    -16.87035839	     15.92419795	     38.83874026	     73.35620019	     10.71927783	    -17.31978212	     22.06284453	     34.48239157	     70.87816015
      1.56666670	    -22.30539349	      1.66011246	     -6.27128652	      0.76091879	      1.16077174	     -0.01892383	     47.87550913	      0.26704393	      2.27412132	     60.54300207	      1.05667473	     40.87191983	      5.48898130	     -7.49999987	     48.43928890	     -1.74242962	     -1.39607544	     59.66407896	      1.04133462	     35.17114774	      7.75076625	     -7.49999987	    -12.68593371	     -2.27632199	      1.07381169	     15.07229321	    -17.52921392	     15.76316935	     43.58478105	     73.19416032	     14.19930171	    -18.74695979	     22.87805552	     39.32004891	     70.53434564
      1.58333330	    -22.56856340	      1.66167557	     -6.19125818	      0.76179114	      1.16626900	     -0.01937202	     47.77955399	      0.36524308	      2.25409953	     60.79228111	      1.06102547	     41.27034337	      4.97229665	     -7.49999987	     48.57756994	     -1.66652291	     -1.25217652	     60.25247149	      1.05160401	     35.59436275	      7.57752922	     -7.49999987	    -12.59168783	     -2.37968651	      0.96919969	     20.93444781	    -18.59434568	     16.58246112	     48.83604448	     73.24678726	     19.82955429	    -20.21531434	     24.80834570	     44.80088230	     70.39270329
      1.60000000	    -23.14784470	      1.64193770	     -5.94346074	      0.76142895	      1.16397843	     -0.01922088	     48.03607289	      0.55304379	      2.29353665	     60.95637587	      1.06388946	     41.46787556	      4.31334557	     -7.49999987	     49.11802174	     -1.65735353	     -1.20195195	     60.95907133	      1.06393650	     35.68087031	      7.63241841	     -7.49999987	    -11.70383324	     -2.46132995	      0.53186174	     27.76637065	    -19.29978305	     17.54579331	     54.78086484	     71.95434845	     26.98774797	    -21.45912743	     25.88541826	     50.35928220	     69.28320193
      1.61666670	    -23.66298207	      1.61933065	     -5.77346530	      0.76707424	      1.14647804	     -0.02123624	     48.55521834	      0.69855983	      2.23609507	     61.82365366	      1.07902631	     41.86759451	      3.33409354	     -7.49999987	     50.04321274	     -1.63376272	     -1.02228483	     62.44513697	      1.08987324	     36.04168238	      6.86144405	     -7.49999987	    -10.53386325	     -2.61383265	      1.43778477	     33.94256318	    -23.46294733	     20.03098882	     66.46524769	     76.67720689	     37.20471601	    -24.03934465	     35.00192812	     58.38284894	     69.15394385
      1.63333330	    -23.63561218	      1.55748218	     -5.42995432	      0.77465374	      1.15416623	     -0.01730198	     47.91293534	      0.64499834	      2.00161394	     61.78919450	      1.07842489	     42.14206365	      2.61786488	     -7.49999987	     49.88341041	     -1.49883150	     -0.76914782	     63.06122992	      1.10062609	     36.16708440	      6.42451738	     -7.49999987	     -9.48994234	     -2.44617828	      0.55301242	     43.77257114	    -24.36121898	     22.80214791	     75.39951548	     75.26050455	     47.18001578	    -26.04047361	     37.44418852	     66.11967850	     68.77660972
      1.65000000	    -23.21343398	      1.41517408	     -5.31631218	      0.78704058	      1.15850959	     -0.02332230	     46.30813690	      0.68320350	      1.87623909	     60.90374096	      1.06297081	     41.43584983	      0.77122478	     -7.49999987	     48.42630647	     -1.26276032	     -0.35360291	     62.47107660	      1.09032597	     35.71166600	      5.11737649	     -7.49999987	     -8.14415320	     -2.46768678	      0.16982561	     52.75429298	    -24.89911888	     26.18102933	     81.47684966	     85.09503069	     56.07425879	    -27.71066728	     40.13477595	     72.02469113	     76.40008217
      1.66666670	    -22.33569382	      1.10199371	     -4.99327097	      0.80566812	      1.16818194	     -0.02551746	     43.22676953	      0.56074104	      1.38359947	     58.52579054	      1.02146774	     39.71860340	     -1.48479033	     -7.49999987	     45.69867501	     -0.82829539	      0.30246041	     60.51018927	      1.05610203	     34.76797072	      4.19499452	     -7.49999987	     -8.37910383	     -2.18212094	     -1.85861655	     62.20389595	    -25.80084448	     30.71589885	     88.29173875	     85.14380093	     68.64752984	    -30.57558592	     45.57713967	     78.84385026	     77.46608447
      1.68333330	    -21.37531295	      0.85565748	     -4.77425502	      0.83168876	      1.18694694	     -0.02257448	     39.01787858	      0.35114236	      0.78789386	     54.52271824	      0.95160095	     37.36676030	     -3.11217131	     -7.49999987	     41.77781148	     -0.58879938	      0.53844680	     57.09597645	      0.99651278	     33.59959402	      4.45829191	     -7.49999987	     -7.38316535	     -2.34771995	     -2.81387650	     65.34984718	    -28.72133413	     33.02238755	     98.18355866	     82.02436952	     74.90041669	    -33.12712579	     52.03109367	     95.31931017	     76.56496605
      1.70000000	    -19.28202238	      0.46052060	     -4.36309359	      0.85767736	      1.21824350	     -0.01209981	     32.18755886	      0.34384444	     -0.04700278	     47.87060839	      0.83549973	     33.31611899	     -5.71045063	     -7.49999987	     35.55608938	     -0.37607070	      1.33380160	     51.54344291	      0.89960279	     30.60752677	      3.88580989	     -7.49999987	     -6.84104535	     -2.16891752	     -4.26377977	     66.47437632	    -25.98664106	     32.90139912	     97.93904818	     82.83935140	     74.39029641	    -34.86158349	     49.80208051	     97.28110124	     84.91392782
      1.71666670	    -17.27172502	     -0.02999005	     -3.98974049	      0.86623544	      1.26359487	     -0.00875958	     25.06483826	      0.60418334	     -1.06750234	     39.71111025	      0.69308962	     28.37378541	     -7.62232787	     -7.49999987	     29.18538826	     -0.67872248	      1.78421677	     45.12499224	      0.78757969	     26.90661831	      4.14593130	     -7.49999987	     -8.14009755	     -2.21052368	     -4.70741342	     67.12022787	    -25.14958724	     31.68042448	     99.26866266	     83.06680337	     76.38648854	    -35.10150565	     47.51974641	     98.24726105	     85.44863608
      1.73333330	    -14.52525623	     -0.34563918	     -3.48135811	      0.89334700	      1.30579097	     -0.01554655	     16.29316973	      0.65116849	     -2.16789937	     30.10916203	      0.52550401	     23.04586112	     -7.91426284	     -7.49999987	     21.28016184	     -0.72136181	      2.32854189	     37.74427215	      0.65876182	     21.98217541	      3.93113932	     -7.49999987	    -10.07576511	     -2.18561989	     -4.62183822	     69.68240205	    -23.25244045	     31.54999523	     97.63188667	     84.10339877	     77.35005805	    -33.51019586	     45.40647221	     98.10895212	     86.64942339
      1.75000000	    -12.53142764	     -0.43311462	     -3.31527791	      0.91290002	      1.33262424	     -0.02495692	      9.20047731	      0.50568771	     -3.36233560	     22.07808292	      0.38533524	     18.14950189	     -6.61216603	     -7.49999987	     14.84762684	     -0.61966857	      2.77625839	     31.06910419	      0.54225816	     17.41195890	      3.90401234	     -7.49999987	    -10.99289662	     -1.45221666	     -3.62911184	     73.34870122	    -23.55656620	     33.73333609	     96.30340898	     84.87874075	     76.90448395	    -31.38474915	     42.32347500	     97.80068680	     87.72993105
      1.76666670	    -11.52405556	     -0.18833996	     -3.17192223	      0.94077708	      1.36506739	     -0.01562172	      4.02468491	      0.12263973	     -4.16882063	     16.18963030	      0.28256235	     13.25847112	     -5.31869425	     -7.49999987	      9.71584864	     -0.29612698	      3.20038778	     25.61801527	      0.44711871	     12.82672663	      3.69448204	     -7.49999987	    -10.50867102	     -1.55179695	     -4.10693299	     73.27258903	    -23.95644947	     34.43889849	     98.78157253	     83.93802593	     75.63599058	    -32.25833076	     41.06751574	     99.94215076	     87.56873813
